<?xml version="1.0" standalone="no"?>
<!DOCTYPE svg PUBLIC "-//W3C//DTD SVG 20010904//EN"
 "http://www.w3.org/TR/2001/REC-SVG-20010904/DTD/svg10.dtd">
<svg version="1.0" xmlns="http://www.w3.org/2000/svg"
 width="980.000000pt" height="980.000000pt" viewBox="0 0 980.000000 980.000000"
 preserveAspectRatio="xMidYMid meet">
<metadata>
Created by potrace 1.14, written by Peter Selinger 2001-2017
</metadata>
<g transform="translate(0.000000,980.000000) scale(0.100000,-0.100000)"
fill="#000000" stroke="none">
<path d="M6175 9786 c-140 -46 -230 -122 -294 -246 -80 -154 -100 -331 -61
-546 11 -60 20 -134 20 -165 0 -124 -68 -301 -139 -360 -20 -17 -69 -46 -109
-66 l-73 -37 -187 -8 c-306 -13 -375 -30 -523 -123 -104 -66 -173 -98 -334
-155 -246 -87 -388 -166 -667 -372 -64 -47 -182 -125 -263 -174 -81 -49 -169
-109 -196 -134 -152 -142 -250 -592 -279 -1280 -27 -630 -27 -642 -59 -742
-63 -197 -66 -332 -10 -445 16 -35 40 -68 52 -75 31 -16 267 -23 365 -9 141
18 169 44 181 168 5 46 17 95 30 120 53 105 1 239 -134 339 -25 18 -28 26 -26
78 3 135 87 477 192 779 90 258 124 393 140 545 l13 121 46 7 c171 23 499 148
711 269 162 93 175 99 208 85 34 -14 44 -44 61 -195 16 -141 36 -222 136 -535
134 -424 164 -560 164 -738 0 -178 -35 -304 -141 -506 -227 -432 -232 -445
-233 -746 0 -164 4 -231 16 -284 l16 -68 -82 -127 c-192 -293 -306 -540 -466
-1006 -116 -339 -193 -475 -304 -540 -56 -32 -162 -59 -336 -85 -389 -58 -454
-90 -1205 -572 -268 -171 -422 -264 -477 -285 -37 -15 -93 -17 -403 -20 -222
-1 -378 -7 -407 -14 -26 -6 -66 -24 -89 -41 -68 -49 -72 -69 -79 -358 l-6
-255 -38 -90 c-82 -198 -79 -184 -84 -387 -8 -337 28 -468 128 -468 37 0 86
58 139 164 96 196 410 636 560 787 154 153 298 211 1006 403 411 111 779 228
1100 348 217 81 366 132 513 173 201 57 235 78 407 244 82 81 222 207 310 281
447 376 557 520 935 1224 35 65 70 120 77 123 7 3 88 -18 181 -46 301 -91 399
-109 1002 -186 484 -62 631 -83 650 -95 10 -6 0 -31 -38 -102 -162 -300 -209
-595 -183 -1136 16 -324 15 -575 -3 -703 -38 -267 -88 -441 -187 -649 -75
-160 -99 -236 -99 -320 0 -75 15 -124 52 -166 43 -48 74 -62 298 -134 107 -34
282 -96 389 -136 253 -97 322 -114 454 -114 176 0 377 51 437 111 66 67 29
115 -165 218 -214 114 -342 208 -479 351 -99 105 -153 204 -182 334 -44 207 9
469 357 1737 261 954 232 828 233 1024 l1 170 -30 54 c-49 89 -53 92 -600 402
-357 202 -573 312 -790 399 -171 69 -596 209 -762 251 -114 29 -133 37 -133
53 0 11 31 140 70 286 91 349 126 508 200 910 33 184 66 359 73 389 l12 54 88
-66 c251 -193 699 -427 814 -427 45 0 81 19 179 96 180 140 351 355 467 589
67 135 91 190 168 398 82 220 109 272 190 362 75 85 109 147 134 247 17 66 17
67 -7 120 -48 105 -218 236 -317 246 -43 4 -52 1 -84 -27 -20 -18 -38 -40 -41
-49 -3 -9 -29 -28 -57 -40 -42 -20 -54 -32 -71 -69 -29 -65 -34 -180 -13 -273
32 -139 33 -133 -24 -245 -71 -137 -133 -217 -259 -333 -138 -125 -270 -257
-308 -305 l-29 -37 -70 85 c-71 88 -161 178 -298 299 -43 37 -84 78 -92 90 -8
11 -23 68 -35 126 -42 208 -117 331 -267 440 -102 74 -238 202 -260 244 -10
18 -13 40 -8 63 l6 34 133 -3 c157 -4 170 2 181 83 4 27 16 60 26 73 19 24 29
77 33 161 1 54 11 65 52 65 45 0 74 16 74 39 0 10 -11 63 -25 116 l-26 97 26
93 c30 112 31 154 5 265 -59 247 -211 419 -417 476 -80 22 -392 29 -448 10z"/>
</g>
</svg>
